- 
http://www.Speed.Cd 
       
http://www.Speed.Cd      fast  and The Hottest Private Tracker on the net

(((--Registration will be open on june every weekend--)))

Please Seed back to make the speed Faster!!!

------------------nfo--------------------------
-








































          
          
              
              
                    
                    
                    
                    

Kidnapped.2010.DVDRip.XviD-SiC

Poster:
[img]http://img171.imageshack.us/img171/916/kidnappedu.jpg[/img]

IMDB Link:
http://www.imdb.com/title/tt1629377/

Description:
Three hooded Eastern-European criminals burst into a home in a Madrid gated community, holding the family hostage in its own home, and forcing the father to empty his credit cards. But the family fights back - brutally.

MediaInfo:
General
Complete name                    : Kidnapped.2010.DVDRip.XviD-SiC.avi
Format                           : AVI
Format/Info                      : Audio Video Interleave
File size                        : 1.48 GiB
Duration                         : 1h 21mn
Overall bit rate                 : 2 604 Kbps

Video
ID                               : 0
Format                           : MPEG-4 Visual
Format profile                   : Advanced Simple@L5
Format settings, BVOP            : 1
Format settings, QPel            : No
Format settings, GMC             : No warppoints
Format settings, Matrix          : Default (H.263)
Codec ID                         : XVID
Codec ID/Hint                    : XviD
Duration                         : 1h 21mn
Bit rate                         : 2 148 Kbps
Width                            : 720 pixels
Height                           : 304 pixels
Display aspect ratio             : 2.35:1
Frame rate                       : 25.000 fps
Color space                      : YUV
Chroma subsampling               : 4:2:0
Bit depth                        : 8 bits
Scan type                        : Progressive
Compression mode                 : Lossy
Bits/(Pixel*Frame)               : 0.392
Stream size                      : 1.22 GiB (82%)
Writing library                  : XviD 1.2.1 (UTC 2008-12-04)

Audio
ID                               : 1
Format                           : AC-3
Format/Info                      : Audio Coding 3
Mode extension                   : CM (complete main)
Codec ID                         : 2000
Duration                         : 1h 21mn
Bit rate mode                    : Constant
Bit rate                         : 448 Kbps
Channel(s)                       : 6 channels
Channel positions                : Front: L C R, Side: L R, LFE
Sampling rate                    : 48.0 KHz
Bit depth                        : 16 bits
Compression mode                 : Lossy
Stream size                      : 260 MiB (17%)
Alignment                        : Aligned on interleaves
Interleave, duration             : 64 ms (1.60 video frames)
Interleave, preload duration     : 192 ms
Title                            : VTS_05_1 T80 3_2ch 448Kbps DELAY 0ms

Text
ID                               : 2
Duration                         : 1h 21mn
Bit rate                         : 84 bps
Stream size                      : 49.9 KiB (0%)
Title                            : Kidnapped.2010.DVDRip.XviD-SiC

Screenshots:
[img]http://img707.imageshack.us/img707/6271/vlcsnap2011080816h11m00.png[/img]
[img]http://img27.imageshack.us/img27/1655/vlcsnap2011080816h11m10.png[/img]
[img]http://img707.imageshack.us/img707/631/vlcsnap2011080816h11m16.png[/img]
[img]http://img64.imageshack.us/img64/1981/vlcsnap2011080816h11m28.png[/img]
[img]http://img535.imageshack.us/img535/6905/vlcsnap2011080816h11m37.png[/img]

Note: Really solid home invasion film. Spanish language audio track, with external English subtitles. 

Encoder: thefuzz

Enjoy!

Respects to CaptainHomey, Cyanide, CM8, Rx, THC, ELEKTRI4KA, 
Killerhz, PA, YeFsTe, BoxSlots, MrRep and everyone in the struggle...